# xmcd
#
# Track frame offsets:
#	183
#	14600
#	27275
#	41963
#	63398
#	81015
#	99440
#	113968
#	124215
#	137890
#	151600
#	164560
#	173690
#	185990
#	194310
#	209135
#	223965
#	238355
#	248703
#	265675
#
# Disc length: 4043 seconds
#
# Revision: 0
# Processed by: cddbd v1.5.2PL0 Copyright (c) Steve Scherf et al.
# Submitted via: audiograbber 1.83.01
#
DISCID=310fc914
DTITLE=R.E.M. - Singles Collected
DYEAR=1994
DGENRE=Rock
TTITLE0=Radio Free Europe [edit]
TTITLE1=There She Goes Again
TTITLE2=So. Central Rain
TTITLE3=King Of The Road
TTITLE4=(Don't Go Back To) Rockville [edit]
TTITLE5=Catapult [live]
TTITLE6=Can't Get There From Here
TTITLE7=Bandwagon
TTITLE8=Wendell Gee
TTITLE9=Crazy
TTITLE10=Fall On Me
TTITLE11=Rotary Ten
TTITLE12=Superman
TTITLE13=White Tornado
TTITLE14=The One I Love
TTITLE15=Maps And Legends [live]
TTITLE16=It's The End Of The World As We Know It (And I Feel Fine) [edit]
TTITLE17=Last Date
TTITLE18=Finest Worksong [other mix]
TTITLE19=Time After Time Etc. [live]
EXTD=
EXTT0=
EXTT1=
EXTT2=
EXTT3=
EXTT4=
EXTT5=
EXTT6=
EXTT7=
EXTT8=
EXTT9=
EXTT10=
EXTT11=
EXTT12=
EXTT13=
EXTT14=
EXTT15=
EXTT16=
EXTT17=
EXTT18=
EXTT19=
PLAYORDER=
